# xmcd CD database file
#
# Track frame offsets:
#	150
#	14565
#	31003
#	42933
#	55660
#	72455
#	85815
#	100950
#	112925
#	132345
#
# Disc length: 2027 seconds
#
# Revision: 2
# Processed by: cddbd v1.4PL0 Copyright (c) Steve Scherf et al.
# Submitted via: CDex 1.40PlusFr
#
DISCID=7d07e90a
DTITLE=Sonny Terry - Sonny is King
DYEAR=1990
DGENRE=Blues
TTITLE0=One monkey don't stop the show
TTITLE1=Changed the lock on my door
TTITLE2=Tater pie
TTITLE3=She's so sweet
TTITLE4=Diggin' my potatoes
TTITLE5=Sonny's coming
TTITLE6=Ida Mae
TTITLE7=Callin' my mama
TTITLE8=Bad luck
TTITLE9=Blues from the bottom
EXTD=YEAR: 1990 ID3G: 0
EXTT0=
EXTT1=
EXTT2=
EXTT3=
EXTT4=
EXTT5=
EXTT6=
EXTT7=
EXTT8=
EXTT9=
PLAYORDER=
